<svg width="141" height="432" viewBox="0 0 141 432" fill="none" xmlns="http://www.w3.org/2000/svg">
<path fill-rule="evenodd" clip-rule="evenodd" d="M-72.9467 0.727783C-69.5626 0.661947 -66.0607 1.2489 -62.4412 2.48863C-58.8854 3.66209 -55.2414 5.32512 -51.5091 7.47777C-47.7767 9.63043 -43.9856 12.1095 -40.1355 14.9149C-36.2217 17.7866 -32.2784 20.8215 -28.3057 24.0196C-24.2692 27.284 -20.2021 30.6465 -16.1043 34.1072C-12.0064 37.5679 -7.84111 40.8998 -3.60828 44.1028C0.62207 47.4359 4.85611 50.5739 9.09387 53.5168C13.4617 56.4622 17.8357 59.0824 22.2159 61.3775C26.5961 63.6726 30.9824 65.6425 35.3749 67.2872C39.7674 68.932 44.1968 70.3497 48.663 71.5405C52.9992 72.7287 57.3059 73.7538 61.5832 74.6157C65.8604 75.4776 70.042 76.2401 74.1279 76.9032C78.2776 77.6326 82.2653 78.3263 86.0911 78.9845C89.9807 79.7089 93.6739 80.4946 97.1708 81.3417C100.798 82.1913 104.194 83.1991 107.36 84.3651C110.525 85.5312 113.491 86.9536 116.256 88.6325C119.022 90.3114 121.555 92.2136 123.857 94.3391C126.092 96.5284 128.128 98.9741 129.963 101.676C131.734 104.312 133.307 107.139 134.681 110.158C135.989 113.24 137.099 116.449 138.011 119.784C138.921 123.25 139.602 126.808 140.053 130.46C140.506 133.981 140.762 137.629 140.821 141.403C140.813 145.242 140.642 149.109 140.308 153.006C139.91 156.837 139.348 160.697 138.624 164.587C137.836 168.41 136.884 172.263 135.77 176.145C134.591 179.961 133.316 183.742 131.944 187.489C130.505 191.3 129.002 195.11 127.433 198.918C125.798 202.791 124.163 206.663 122.528 210.535C120.894 214.407 119.258 218.345 117.62 222.347C116.049 226.286 114.509 230.322 112.999 234.457C111.619 238.595 110.335 242.831 109.147 247.167C107.895 251.437 106.867 255.874 106.064 260.478C105.261 265.081 104.684 269.787 104.333 274.594C103.979 279.532 103.818 284.538 103.852 289.613C103.886 294.688 104.048 299.83 104.34 305.04C104.631 310.25 104.955 315.493 105.31 320.77C105.665 326.046 105.988 331.289 106.28 336.499C106.571 341.709 106.735 346.786 106.771 351.731C106.805 356.806 106.614 361.714 106.199 366.455C105.783 371.197 105.078 375.77 104.084 380.174C103.09 384.579 101.742 388.75 100.041 392.686C98.2758 396.556 96.1256 400.158 93.5901 403.493C91.0522 406.957 88.1634 410.058 84.9238 412.794C81.7479 415.596 78.285 418.1 74.5349 420.305C70.7849 422.511 66.8459 424.388 62.718 425.936C58.5902 427.484 54.4034 428.706 50.1578 429.601C45.7822 430.493 41.3158 431.027 36.7586 431.2C32.3315 431.376 27.9105 431.227 23.4958 430.753C19.0835 430.149 14.7424 429.221 10.4725 427.969C6.26895 426.653 2.20158 425.014 -1.72955 423.053C-5.6582 420.962 -9.45186 418.613 -13.1105 416.006C-16.8354 413.463 -20.4585 410.695 -23.9797 407.7C-27.5008 404.706 -30.9876 401.615 -34.4401 398.427C-37.8287 395.305 -41.2505 392.215 -44.7054 389.156C-48.0941 386.034 -51.5502 383.041 -55.0739 380.177C-58.5337 377.379 -62.0623 374.775 -65.6596 372.364C-69.3232 370.018 -73.0899 367.962 -76.9597 366.197C-80.832 364.562 -84.8417 363.315 -88.9889 362.456C-93.1361 361.596 -97.4209 361.125 -101.843 361.041C-106.201 361.023 -110.63 361.264 -115.128 361.764C-119.626 362.264 -124.128 362.96 -128.634 363.85C-133.074 364.676 -137.417 365.602 -141.665 366.627C-145.977 367.586 -150.093 368.484 -154.012 369.32C-157.934 370.287 -161.623 371.03 -165.081 371.55C-168.605 372.133 -171.831 372.43 -174.759 372.439C-177.62 372.385 -180.149 371.947 -182.345 371.124C-184.478 370.368 -186.245 369.196 -187.646 367.608C-189.044 365.89 -190.111 363.853 -190.847 361.497C-191.647 359.075 -192.214 356.365 -192.547 353.366C-192.814 350.303 -192.947 347.048 -192.947 343.6C-192.944 340.022 -192.874 336.315 -192.736 332.479C-192.532 328.58 -192.358 324.582 -192.215 320.487C-192.009 316.457 -191.898 312.328 -191.883 308.1C-191.934 303.935 -192.115 299.768 -192.426 295.599C-192.673 291.496 -193.182 287.453 -193.952 283.47C-194.656 279.423 -195.557 275.502 -196.656 271.708C-197.689 267.85 -198.821 264.088 -200.052 260.422C-201.281 256.625 -202.546 252.991 -203.846 249.518C-205.144 245.915 -206.378 242.379 -207.548 238.909C-208.718 235.439 -209.759 232.036 -210.672 228.701C-211.648 225.299 -212.366 221.968 -212.824 218.707C-213.346 215.379 -213.642 212.088 -213.71 208.834C-213.715 205.646 -213.394 202.464 -212.748 199.289C-212.036 196.05 -211.032 192.849 -209.736 189.685C-208.44 186.522 -206.85 183.332 -204.968 180.115C-203.083 176.768 -200.971 173.458 -198.631 170.185C-196.29 166.781 -193.784 163.283 -191.113 159.691C-188.443 156.098 -185.608 152.412 -182.609 148.63C-179.74 144.846 -176.737 140.87 -173.6 136.701C-170.529 132.596 -167.422 128.264 -164.278 123.704C-161.136 119.275 -157.989 114.586 -154.838 109.637C-151.816 104.685 -148.791 99.5377 -145.762 94.1956C-142.799 88.9173 -139.834 83.509 -136.867 77.9706C-133.902 72.5623 -130.968 67.1208 -128.067 61.6462C-125.168 56.3017 -122.272 51.0872 -119.378 46.0028C-116.484 40.9184 -113.562 36.0622 -110.611 31.4343C-107.664 26.9363 -104.69 22.7967 -101.691 19.0154C-98.6913 15.2341 -95.6369 11.9743 -92.5273 9.23599C-89.3539 6.56393 -86.1597 4.51031 -82.9448 3.07507C-79.6635 1.57606 -76.3308 0.793641 -72.9467 0.727783Z" fill="#FFCC00"/>
</svg>
